<svg width="400" height="400" fill="none" xmlns="http://www.w3.org/2000/svg"><g clip-path="url(#clip0)"><path fill="#DEFB48" d="M0 0h400v400H0z"/><g clip-path="url(#clip1)" fill-rule="evenodd" clip-rule="evenodd" fill="#0B0A15"><path d="M251.402 271.549l-22.11-22.219v-45.706l68.857-69.194h42.324l2.527 2.54v20.313l-39.166 39.993 3.79 4.127h32.218l3.158 3.491v21.583l-44.851 45.072h-46.747zm24.637-111.726v41.897l21.478 21.583h42.956v-19.361h-34.112l-10.107-10.475V168.71l11.37-11.744h32.849V136.97h-41.692l-22.742 22.853zM75.296 271.883v-67.587H53.38V180.38l45.102-45.281h23.504l3.811 3.827 5.082-3.827h36.209v24.235l-21.916 22.641v44.324l-46.055 45.584H75.296zm47.642-114.143v67.283h20.011v-65.689l-22.234-22.321h-19.692v20.727h21.915zm42.244-20.727h-29.856l19.692 19.77h10.164v-19.77z"/><path d="M144.346 271.549V214.416l.037-11.109h.595v-23.171l45.483-45.706h67.593v45.706l-10.423 12.697-7.265 7.617v1.587h17.688v25.075l-44.22 44.437h-69.488zm111.813-67.29h-63.803v19.044h.112v.102h63.802v-19.044h-.111v-.102zm-11.371-33.645h-53.064v17.775h.112v.102h53.063v-17.774h-.111v-.103zm11.371-34.279h-63.803v19.679h.112v.102h63.802v-19.679h-.111v-.102z"/></g></g><defs><clipPath id="clip0"><path fill="#fff" d="M0 0h400v400H0z"/></clipPath><clipPath id="clip1"><path fill="#fff" transform="translate(53.38 129)" d="M0 0h293.241v143H0z"/></clipPath></defs></svg>