<svg width="160" height="76" fill="none" xmlns="http://www.w3.org/2000/svg"><path fill-rule="evenodd" clip-rule="evenodd" d="M109.397 75.75L97.182 63.477v-25.25L135.222 0h23.382L160 1.403v11.222L138.363 34.72l2.094 2.28h17.798L160 38.927v11.924l-24.778 24.9h-25.825zm13.61-61.722v23.146l11.866 11.924h23.731V38.4h-18.845l-5.584-5.786V18.938l6.282-6.488h18.147V1.403h-23.033l-12.564 12.625zm-110.9 61.907V38.597H0V25.385L24.916.369h12.985l2.106 2.114L42.814.37h20.004v13.389L50.71 26.266v24.486L25.267 75.935h-13.16zm26.32-63.058v37.17h11.055V13.759L37.199 1.426H26.32v11.451h12.108zm23.338-11.45H45.27L56.15 12.348h5.615V1.426z" fill="#0B0A15"/><path fill-rule="evenodd" clip-rule="evenodd" d="M50.254 75.75V44.188l.02-6.136h.329v-12.8L75.73 0h37.342v25.25l-5.759 7.014-4.013 4.208v.877h9.772v13.853L88.642 75.75H50.255zm61.771-37.173H76.777v10.52h.062v.057h35.247v-10.52h-.061v-.057zm-6.282-18.587H76.428v9.82h.062v.056h29.314v-9.82h-.061v-.056zm6.282-18.938H76.777v10.872h.062v.056h35.247V1.11h-.061v-.057z" fill="#0B0A15"/></svg>