<svg width="113" height="50" fill="none" xmlns="http://www.w3.org/2000/svg"><path d="M3.344 1.84H0V0h8.864v1.84H5.52v9.36H3.344V1.84zM10.75 9.36V1.84L12.59 0h5.76l1.84 1.84v7.52l-1.84 1.84h-5.76l-1.84-1.84zm6.447-.016l.816-.816V2.672l-.816-.816h-3.456l-.816.816v5.856l.816.816h3.456zM23.113 0h2.175v4.688h1.697L29.689 0h2.447l-3.28 5.584 3.552 5.616h-2.495l-2.945-4.656h-1.68V11.2h-2.175V0zM34.534 0h8.096v1.84h-5.92v2.832h5.456V6.48H36.71v2.88h5.92v1.84h-8.096V0zM45.237 0h1.953l4.992 7.6h.032V0h2.096v11.2h-1.953l-4.992-7.584h-.032V11.2h-2.096V0zM.8 19h8.096v1.84h-5.92v2.832h5.456v1.808H2.976v2.88h5.92v1.84H.8V19zM11.503 19h1.952l4.992 7.6h.032V19h2.096v11.2h-1.952l-4.992-7.584H13.6V30.2h-2.096V19zM23.5 28.36v-7.52L25.34 19h5.567l1.808 1.808v1.712H30.54v-.912l-.752-.752h-3.296l-.816.816v5.856l.816.816h3.328l.784-.784v-1.744h-2.4V23.96h4.512v4.4l-1.84 1.84H25.34l-1.84-1.84zM35.552 19h2.176v11.2h-2.176V19zM40.894 19h1.952l4.992 7.6h.032V19h2.096v11.2h-1.952l-4.992-7.584h-.032V30.2h-2.096V19zM53.05 19h8.096v1.84h-5.92v2.832h5.456v1.808h-5.456v2.88h5.92v1.84H53.05V19zM63.753 19h8.096v1.84h-5.92v2.832h5.456v1.808H65.93v2.88h5.92v1.84h-8.096V19zM83.256 26.488V30.2H81.08v-3.216l-.96-1.072h-3.488V30.2h-2.176V19h7.024l1.712 1.728v3.392l-1.088 1.104 1.152 1.264zm-6.624-2.368h3.856l.56-.56v-2.176l-.56-.56h-3.856v3.296zM86.333 19h2.176v11.2h-2.176V19zM91.675 19h1.952l4.992 7.6h.032V19h2.096v11.2h-1.952l-4.992-7.584h-.032V30.2h-2.096V19zM103.671 28.36v-7.52l1.84-1.84h5.568l1.808 1.808v1.712h-2.176v-.912l-.752-.752h-3.296l-.816.816v5.856l.816.816h3.328l.784-.784v-1.744h-2.4V23.96h4.512v4.4l-1.84 1.84h-5.536l-1.84-1.84zM.64 47.36v-7.52L2.48 38h5.472l1.808 1.808v1.712H7.584v-.912l-.752-.752h-3.2l-.816.816v5.856l.816.816h3.2l.752-.752v-.912H9.76v1.712L7.952 49.2H2.48L.64 47.36zM12.124 47.36v-7.52l1.84-1.84h5.76l1.84 1.84v7.52l-1.84 1.84h-5.76l-1.84-1.84zm6.448-.016l.816-.816v-5.856l-.816-.816h-3.456l-.816.816v5.856l.816.816h3.456zM24.488 38h2.015l3.328 7.232h.032L33.209 38h2.016v11.2h-2.096v-6.816h-.032l-2.576 5.248h-1.345l-2.56-5.248h-.031V49.2h-2.096V38zM38.3 38h2.016l3.328 7.232h.032L47.02 38h2.016v11.2H46.94v-6.816h-.032l-2.576 5.248h-1.344l-2.56-5.248h-.032V49.2H38.3V38zM51.953 47.36v-7.52l1.84-1.84h5.76l1.84 1.84v7.52l-1.84 1.84h-5.76l-1.84-1.84zm6.447-.016l.817-.816v-5.856l-.816-.816h-3.457l-.816.816v5.856l.816.816H58.4zM64.316 38h1.952l4.992 7.6h.032V38h2.096v11.2h-1.952l-4.992-7.584h-.032V49.2h-2.096V38zM76.232 47.472v-1.6h2.144v.944l.528.528h3.312l.544-.544v-1.856l-.528-.528h-4.24l-1.728-1.728v-2.96L77.992 38h5.056l1.728 1.728v1.616h-2.144v-.96l-.528-.528h-3.168l-.528.528v1.648l.528.528h4.24l1.728 1.728v3.152l-1.76 1.76H77.96l-1.728-1.728z" fill="#fff"/></svg>